<?xml version="1.0" encoding="utf-8"?>
<svg viewBox="0 0 256 256" xmlns="http://www.w3.org/2000/svg">
  <g>
    <g fill="#ebe7f2"/>
    <path d="m108.825 174.236h.038v-.498c-.011.167-.025.332-.038.498z" fill="#e6e7e8"/>
    <circle cx="52.918" cy="128" fill="#a58bc9" r="7.082"/>
    <g fill="#846f75">
      <path d="m221.911 99.191c3.281-2.962 4.184-7.465 2.299-11.472-1.725-3.67-5.319-5.82-9.375-5.613l-37.609 1.921c-1.386.08-2.674-.428-3.649-1.403s-1.474-2.271-1.403-3.649l1.921-37.61c.225-4.414-2.321-8.236-6.487-9.735-3.811-1.374-7.874-.356-10.598 2.659l-25.237 27.951c-.925 1.023-2.194 1.588-3.573 1.588s-2.648-.564-3.573-1.587l-25.236-27.953c-2.962-3.282-7.465-4.185-11.473-2.298-3.669 1.726-5.818 5.318-5.612 9.375l1.922 37.608c.07 1.38-.429 2.676-1.403 3.651-.976.975-2.286 1.485-3.649 1.403l-37.609-1.921c-4.413-.226-8.236 2.32-9.737 6.487-1.375 3.814-.355 7.875 2.659 10.598 1.026.926 2.607.844 3.531-.18.926-1.025.845-2.605-.18-3.531-1.502-1.355-1.99-3.297-1.308-5.191.588-1.63 2.153-3.33 4.778-3.188l37.61 1.921c2.761.125 5.48-.901 7.439-2.862 1.959-1.958 3.002-4.67 2.862-7.44l-1.921-37.61c-.104-2.021.924-3.738 2.746-4.596 1.566-.736 3.871-.83 5.634 1.123l25.236 27.954c1.858 2.057 4.514 3.236 7.284 3.236 2.771 0 5.426-1.18 7.284-3.237l25.235-27.952c1.355-1.502 3.295-1.991 5.192-1.306 1.629.586 3.322 2.149 3.188 4.776l-1.921 37.61c-.141 2.769.902 5.479 2.862 7.439 1.959 1.961 4.676 2.983 7.439 2.862l37.609-1.921c2.03-.106 3.738.924 4.595 2.747.737 1.566.829 3.869-1.123 5.633l-27.953 25.235c-2.058 1.857-3.237 4.513-3.237 7.284s1.18 5.427 3.238 7.284l27.951 25.235c1.502 1.355 1.99 3.297 1.309 5.191-.588 1.63-2.173 3.352-4.778 3.188l-37.609-1.92c-2.773-.127-5.479.901-7.441 2.861-1.959 1.961-3.002 4.673-2.861 7.44l1.921 37.609c.104 2.02-.923 3.737-2.747 4.595-1.566.738-3.87.828-5.633-1.123l-25.235-27.954c-1.858-2.057-4.514-3.236-7.284-3.236s-5.426 1.18-7.284 3.237l-25.237 27.958c-1.357 1.501-3.295 1.987-5.191 1.306-1.63-.588-3.323-2.15-3.188-4.777l1.51-29.548c.07-1.379-.99-2.555-2.369-2.625-1.394-.064-2.554.991-2.625 2.369l-1.51 29.549c-.225 4.413 2.321 8.234 6.486 9.735 3.817 1.376 7.875.357 10.599-2.658l25.236-27.953c.925-1.023 2.194-1.588 3.573-1.588s2.648.564 3.573 1.587l25.235 27.954c1.935 2.142 4.526 3.27 7.207 3.27 1.425 0 2.875-.318 4.266-.972 3.67-1.727 5.82-5.319 5.612-9.376l-1.921-37.608c-.07-1.378.428-2.674 1.403-3.649.977-.976 2.257-1.48 3.649-1.403l37.609 1.92c4.415.205 8.234-2.321 9.738-6.488 1.373-3.814.354-7.874-2.661-10.597l-27.952-25.235c-1.025-.925-1.589-2.194-1.589-3.573s.564-2.648 1.588-3.573z"/>
      <path d="m67.915 106.362h-29.993c-4.644 0-8.422 3.777-8.422 8.421v57.524c0 4.644 3.778 8.421 8.422 8.421h29.993c4.644 0 8.421-3.777 8.421-8.421v-57.524c0-4.643-3.777-8.421-8.421-8.421zm3.421 65.946c0 1.887-1.534 3.421-3.421 3.421h-29.993c-1.887 0-3.422-1.534-3.422-3.421v-57.524c0-1.887 1.535-3.421 3.422-3.421h29.993c1.887 0 3.421 1.534 3.421 3.421z"/>
      <path d="m101.444 179.625h48.909c5.053 0 10.365-2.359 14.98-6.648 2.119-1.431 3.377-3.788 3.377-6.357v-9.375c0-.296-.021-.587-.054-.874-.012-.104-.031-.206-.047-.309-.028-.179-.059-.356-.099-.531-.029-.126-.062-.251-.097-.376-.04-.142-.085-.281-.133-.419s-.095-.276-.15-.41c-.045-.108-.097-.212-.146-.318-.06-.128-.11-.261-.177-.385.04-.022.075-.051.115-.074.215-.124.424-.258.625-.401.079-.056.155-.114.231-.173.181-.139.354-.286.522-.441.056-.052.115-.1.17-.154.212-.208.412-.427.6-.658.043-.053.08-.109.121-.162.145-.189.282-.385.409-.587.048-.077.095-.154.141-.232.128-.221.246-.448.352-.682.021-.046.045-.089.065-.135.12-.279.221-.567.308-.861.023-.078.04-.158.061-.237.06-.23.109-.463.147-.7.015-.09.03-.179.041-.27.039-.314.066-.632.066-.956v-9.375c0-.277-.016-.55-.045-.82-.017-.162-.047-.32-.074-.48-.016-.093-.027-.188-.047-.28-.126-.621-.318-1.225-.585-1.795.04-.018.075-.044.114-.063.251-.121.495-.255.73-.402.049-.031.1-.058.148-.09.268-.176.524-.369.768-.576.049-.042.095-.087.144-.131.2-.179.39-.369.571-.568.048-.053.098-.105.145-.159.207-.241.4-.494.576-.759.031-.046.057-.096.087-.143.145-.23.277-.469.398-.714.036-.072.072-.144.105-.218.133-.293.251-.593.347-.904.011-.036.018-.073.028-.11.082-.281.145-.569.194-.862.014-.086.028-.172.04-.258.044-.333.075-.669.075-1.013v-9.375c0-.25-.014-.497-.038-.74-.008-.08-.022-.158-.032-.238-.021-.163-.043-.325-.074-.484-.018-.091-.04-.181-.061-.271-.033-.145-.069-.288-.111-.429-.027-.092-.057-.183-.088-.274-.046-.136-.095-.27-.148-.402-.035-.089-.072-.177-.111-.265-.059-.131-.122-.26-.187-.387-.042-.082-.083-.164-.128-.244-.075-.133-.155-.262-.237-.39-.044-.069-.085-.138-.131-.206-.109-.158-.225-.311-.344-.46-.025-.032-.048-.065-.074-.097-.148-.179-.306-.352-.47-.517-.043-.044-.09-.083-.135-.126-.123-.118-.248-.235-.379-.345-.064-.054-.132-.104-.198-.156-.117-.092-.236-.182-.358-.268-.075-.052-.151-.101-.228-.15-.121-.078-.243-.153-.369-.224-.081-.046-.162-.09-.245-.133-.128-.067-.258-.129-.39-.188-.084-.038-.167-.076-.253-.111-.14-.057-.283-.108-.426-.156-.082-.028-.162-.058-.245-.083-.168-.051-.34-.093-.513-.132-.061-.014-.121-.032-.183-.044-.011-.002-.021-.006-.032-.008.345-.892.527-1.847.527-2.817v-9.374c0-4.23-3.441-7.673-7.672-7.673h-7.295c-1.381 0-2.5 1.119-2.5 2.5s1.119 2.5 2.5 2.5h7.295c1.474 0 2.672 1.199 2.672 2.673v9.374c0 .776-.343 1.558-.917 2.088-.266.246-.67.521-1.191.585h-.563-3.67c-1.381 0-2.5 1.119-2.5 2.5s1.119 2.5 2.5 2.5h4.447 4.88c1.474 0 2.673 1.198 2.673 2.672v9.375c0 1.474-1.199 2.672-2.673 2.672h-2.817c-.037-.002-.075.003-.112.001h-.788-6.859-1.375v-20.79c0-15.129-12.309-27.438-27.438-27.438h-15.422c-6.841 0-13.395 2.534-18.456 7.136l-16.47 14.972c-1.021.929-1.097 2.51-.168 3.531.927 1.021 2.509 1.098 3.531.168l16.47-14.972c4.139-3.763 9.499-5.835 15.093-5.835h15.422c12.372 0 22.438 10.065 22.438 22.438v29.951h-1.964c-7.533 0-13.661-6.128-13.661-13.661 0-9.18-7.468-16.647-16.647-16.647h-7.092c-1.381 0-2.5 1.119-2.5 2.5s1.119 2.5 2.5 2.5h7.092c6.423 0 11.647 5.225 11.647 11.647 0 1.717.252 3.373.688 4.953-5.231 1.438-9.09 6.224-9.09 11.906 0 4.953 2.935 9.223 7.151 11.193-2.122 2.22-3.434 5.22-3.434 8.527 0 6.816 5.545 12.359 12.36 12.359 1.381 0 2.5-1.119 2.5-2.5s-1.119-2.5-2.5-2.5c-4.059 0-7.36-3.302-7.36-7.359 0-4.059 3.302-7.36 7.36-7.36h23.114c.534 0 1.03.162 1.448.433.171.111.326.238.464.38.042.043.075.093.114.139.092.107.176.22.249.34.039.064.075.132.108.199.06.121.109.247.15.377.02.064.044.126.06.192.047.199.078.403.078.613v9.375c0 .926-.47 1.773-1.256 2.267-.138.086-.268.187-.386.298-3.668 3.458-7.938 5.441-11.716 5.441h-48.909c-5.93 0-11.72-1.134-17.209-3.371-1.276-.521-2.737.093-3.259 1.372-.521 1.278.094 2.737 1.372 3.259 6.093 2.48 12.518 3.739 19.098 3.739zm36.481-30.054h-3.718c-4.058 0-7.359-3.302-7.359-7.359 0-3.628 2.642-6.643 6.1-7.244 3.271 5.41 9.193 9.045 15.963 9.045h4.464c1.381 0 2.5-1.119 2.5-2.5v-6.661h1.375 6.859c1.286 0 2.363.913 2.616 2.126.034.18.057.362.057.546v9.375c0 1.474-1.199 2.672-2.673 2.672h-3.07z"/>
      <path d="m82.014 138.491c.007.075.027.148.041.223.016.083.026.168.051.25.025.083.063.162.097.243.029.069.05.139.085.206.058.111.132.214.208.317.023.03.038.065.062.094.001.001.002.002.003.004.107.131.229.255.366.366 7.642 6.19 11.368 12.479 11.076 18.69-.065 1.379 1 2.55 2.38 2.614.04.002.079.003.119.003 1.327 0 2.433-1.043 2.495-2.383.338-7.188-3.255-14.197-10.662-20.867 7.406-6.67 11-13.679 10.662-20.867-.063-1.379-1.209-2.431-2.614-2.38-1.38.064-2.445 1.235-2.38 2.614.292 6.212-3.435 12.5-11.076 18.69-.001.001-.002.003-.004.003-.066.054-.123.121-.184.182-.06.06-.126.115-.178.18-.001.002-.003.002-.004.004-.024.03-.039.064-.062.094-.076.103-.15.206-.208.317-.035.067-.056.137-.085.206-.033.081-.072.159-.097.243-.024.082-.035.166-.051.25-.014.074-.034.147-.041.223-.008.081-.002.161-.002.241s-.005.16.003.24z"/>
      <path d="m207.907 19.388c-15.355 0-27.848 12.493-27.848 27.849 0 5.142 1.396 10.118 4.052 14.472l-3.363 9.426c-.324.909-.097 1.925.587 2.607.683.685 1.699.908 2.607.587l9.4-3.353c4.377 2.692 9.385 4.109 14.564 4.109 15.355 0 27.849-12.493 27.849-27.849.001-15.355-12.492-27.848-27.848-27.848zm0 50.697c-4.604 0-9.044-1.364-12.837-3.945-.42-.286-.911-.434-1.406-.434-.283 0-.566.048-.84.146l-5.595 1.996 2.003-5.615c.268-.748.162-1.579-.282-2.238-2.545-3.773-3.891-8.184-3.891-12.758 0-12.599 10.249-22.849 22.848-22.849s22.849 10.25 22.849 22.849c0 12.598-10.25 22.848-22.849 22.848z"/>
    </g>
    <path d="m208.056 50.25c1.721 0 3.116-1.395 3.116-3.116v-12.332c0-1.721-1.395-3.116-3.116-3.116s-3.116 1.395-3.116 3.116v12.332c-.001 1.721 1.395 3.116 3.116 3.116z" fill="#a58bc9"/>
    <circle cx="208.056" cy="56.217" fill="#a58bc9" r="3.116"/>
  </g>
</svg>